<?xml version="1.0" encoding="utf-8"?>
<!-- Generator: Adobe Illustrator 26.3.0, SVG Export Plug-In . SVG Version: 6.00 Build 0)  -->
<svg version="1.1" id="Layer_1" xmlns="http://www.w3.org/2000/svg" xmlns:xlink="http://www.w3.org/1999/xlink" x="0px" y="0px"
	 viewBox="0 0 1000 1000" style="enable-background:new 0 0 1000 1000;" xml:space="preserve">
<style type="text/css">
	.st0{fill:#5F82A6;stroke:#FFFFFF;stroke-miterlimit:10;}
</style>
<g id="_x23_ffffffff">
</g>
<g id="_x23_5f82a6ff">
	<path class="st0" d="M388.1,156.7c4.5-1.5,9-3.8,13.9-3.5c3.4,0.1,7.3,1.4,8.5,4.9c5.4,12.1,7.8,25.5,15,36.8
		c4.3,7.2,10.8,12.8,17.5,17.7c21.1,15.6,46.9,23.2,72.5,27.2c19.1,2.5,38.8,2.9,57.5-2.1c11-3.1,22-7.8,30.1-16.2
		c8.8-8.4,14.1-19.8,23.3-27.7c5.8-1.1,11.8,1.3,16.3,4.9c63.1,49.8,125.5,100.5,188.3,150.6c5.8,4.4,11,9.3,16.6,13.9
		c-42.1,51.6-85.1,102.3-128.9,152.5c-9.9-8.5-18.1-19.3-30.1-25c-4.6-2.2-9.6-3.6-14.7-3.7c-5.4,0-10.4,4.2-11.3,9.5
		c-6.5,28.3-10.8,57.1-15.4,85.8c-80.5,17.8-160.9,36.4-241.1,55.8c1.3,9.3,0.9,18.8-0.9,27.9c-2.6,10.7-9.4,19.6-15.6,28.4
		c-0.9,1.1-0.2,2.7,1,3.3c28.9,22.1,57.7,44.3,86.7,66.3c14.3,10.7,28.1,22,42.3,32.7c14.9,11.4,29.9,22.7,44.8,34.2
		c1.7,1.4,2.5,3.5,3.5,5.4c5.4,10.1,10.8,20.2,16.2,30.3c-12.8,4.2-25.1,11.1-33.9,21.4c-6.5,7.5-8.2,19-3.8,27.9
		c2.3,4.8,5.8,8.7,9.4,12.6c13.9,15.9,34.8,22.7,54.4,28.6c8.7,2,17.7,2.4,26.5,3.2c7.3,0.3,14.7,1.4,21.9,0.2
		c17.8-2.2,36.1-5.8,51.4-15.8c7.2-4.9,14.4-11,17.6-19.3c3.5-8.9,1.1-19-4.4-26.5c-8.9-12-21.7-20.6-35.2-26.6
		c6.3-10.5,12.5-21,18.8-31.6c15.7,7.9,31,17.7,42,31.7c8.8,11.5,15.4,25.4,15.8,40.1c0,12-1.6,24.6-7.9,35.1
		c-6.6,11-15.1,21.2-26.1,27.8c-11.4,7.2-23.8,12.9-37,15.8c-12.8,2.8-25.8,5.4-38.9,5.7c-20.5,0.5-41.1-1.1-61-6.5
		c-12.7-3.3-24.6-8.7-36.1-14.9c-14.3-8-27.2-18.8-37.1-32c-8-12.1-14.2-26.2-13.3-41c0.8-19.5,12-37.3,27-49.4
		c-15-10.8-29.4-22.2-44-33.4c-42.8-32.5-85.4-65.1-127.8-98.1c-2.6-2-6-4.1-9.3-2.5c-15.3,6.6-31.8,10.2-48.4,11.8
		c-5,0.5-10,1-15,0.6c-13.1-0.9-26.3-1.8-39.3-3.8c-8.5-2.1-17-4.1-25.3-6.6c-18.4-6.8-36.3-15.9-51.1-29
		c-9.1-7.7-15.8-17.9-20.3-28.8c-5.8-14.5-6.8-31.3-1.2-46c5.9-15.8,17.7-29.1,32.1-37.8c20.9-12.4,44.9-18.9,69.1-20.5
		c14-1.1,28,0.1,41.9,1.6c13.4,0.7,26.1,5.4,38.9,9.1c18.4,5.5,34.8,16.4,48.7,29.4c6.8-1,13.6-2.1,20.5-3
		c66.3-15.3,132.6-30.6,199-45.7c4.7-0.8,8.9-4.4,9.8-9.2c9.9-49,18.8-98.2,27.5-147.5c22.4,18.7,43.6,38.8,67.2,56.1
		c4.8,3.9,12.5,3,16.3-1.9c19.1-23.2,38.4-46.2,58.9-68.2c4.8-4.6,4.4-13.1-0.8-17.3c-44-37.5-90.6-71.9-134.8-109.3
		c-4-3.5-10.3-3.6-14.5-0.5c-28.9,20-64.5,29.5-99.5,29c-48.4-0.5-96.9-19-131.7-52.9c-6.4-6.3-12.4-13.1-17.7-20.4
		c-1.8-2.5-4.5-4.5-7.7-5c-4-0.8-7.7,1.2-11.5,2.3c-51.7,16.7-102.8,35.3-153.8,54.1c-4.1,1.4-7.2,5.1-7.8,9.4
		c-0.7,3.8,1.2,7.3,2.4,10.7c9.7,25.8,17.2,52.5,28.2,77.8c1.7,4.3,6,6.9,10.4,7.5c11.3,2.3,22.3-2.2,32.5-6.4
		c18.6-7.9,37.2-15.9,56-23.4c-11,71.3-25.1,142-38.9,212.7c-13.2-2.4-26.7-2.5-39.9-1.2c7.4-40.1,15.4-80.1,21.9-120.4
		c0.5-3.4,1.5-7,0.3-10.4c-1.3-4.3-5.4-7.6-9.9-8c-2.9-0.4-5.6,0.8-8.2,1.8c-14.4,5.9-29,11.5-43.6,17
		c-19.8-63.7-46.9-124.9-65.1-189.2C229.1,211.9,308.3,183.4,388.1,156.7 M250.6,595.3c-12.4,1.5-24.5,4.8-35.8,10
		c-11.2,5.2-22.6,12.5-27.6,24.3c-3.6,8.1-1.3,17.4,3.1,24.7c6.9,11.7,18.7,19.2,30.1,25.9c14.7,7.2,30.7,11.5,46.9,13.6
		c19.4,2.4,39.4,2.2,58.4-3c9.8-2.5,19.5-6.1,28-11.8c6.1-4.2,11.6-9.8,14.1-17c2.4-5.2,3.7-11,2.6-16.8
		c-1.1-7.2-6.2-12.9-10.7-18.3c-6.4-7.6-15.2-12.7-23.9-17.1c-13.8-6.8-28.6-12-44-13.7C278,594.5,264.2,593.5,250.6,595.3z"/>
	<path class="st0" d="M627.5,619.2c33-4.5,67.8,7.8,90.6,32.1c20,20.6,31.1,49.6,29.6,78.3c-1.1,17.8-9,34.4-18.5,49.2
		c-15.3,23.4-30.6,46.9-44.9,71c-13.4,22.8-25.3,46.5-33.1,71.8c-2.2,8.1-12.8,11.8-19.7,7.3c-5.7-2.8-6.4-9.5-8-14.9
		c-8.7-27.7-22.3-53.4-36.5-78.6c-10-17.5-20.3-34.8-31.3-51.7c-9.4-14.7-18.2-30.5-20.3-48.2c-1.4-8.3-1.2-16.8,0.4-25.1
		c4.5-30.5,22.5-58.9,48.6-75.5C597.4,626.6,612.2,621.1,627.5,619.2 M631.5,665.1c-18.8,3.1-35.3,16.7-42.7,34.2
		c-4.3,9.8-4.8,20.8-3.5,31.2c2.7,17,14,32.2,29.1,40.5c23.6,13.1,56.5,6.2,72.4-15.7c8.4-11.7,12.3-26.5,10.6-40.8
		c-1.5-15.7-9.9-30.7-22.9-39.8C662.1,666.2,646.4,662.8,631.5,665.1z"/>
</g>
</svg>
